<svg width="16503" height="3355" viewBox="0 0 16503 3355" fill="none" xmlns="http://www.w3.org/2000/svg">
<path d="M16503 0L16435 3355H0V0H16503Z" fill="#166CFF"/>
<path d="M10174 293H10406V491H10337.5C10247.2 491 10174 417.799 10174 327.5V293Z" fill="#1455FF"/>
<path d="M9843.7 2372.84C9857.83 2345.32 9897.17 2345.32 9911.3 2372.84L9963.83 2475.14C9976.81 2500.43 9958.45 2530.5 9930.02 2530.5H9824.98C9796.55 2530.5 9778.19 2500.43 9791.17 2475.14L9843.7 2372.84Z" fill="#A7BFFF"/>
<path d="M9936.7 2372.84C9950.83 2345.32 9990.17 2345.32 10004.3 2372.84L10056.8 2475.14C10069.8 2500.43 10051.4 2530.5 10023 2530.5H9917.98C9889.55 2530.5 9871.19 2500.43 9884.17 2475.14L9936.7 2372.84Z" fill="#6D95FF"/>
<path d="M10526 0H16503V1914H11483C10954.5 1914 10526 1485.54 10526 957V0Z" fill="#1A57C2"/>
<path d="M6730.93 2786.93C6665.47 2852.38 6582.09 2896.95 6491.3 2915.01C6400.52 2933.07 6306.42 2923.8 6220.9 2888.38C6135.39 2852.95 6062.3 2792.97 6010.87 2716.01C5959.45 2639.04 5932 2548.56 5932 2456C5932 2363.44 5959.45 2272.96 6010.87 2195.99C6062.3 2119.03 6135.39 2059.05 6220.9 2023.62C6306.42 1988.2 6400.52 1978.93 6491.3 1996.99C6582.09 2015.05 6665.47 2059.62 6730.93 2125.07L6400 2456L6730.93 2786.93Z" fill="#A7BFFF"/>
</svg>
