<svg width="16515" height="19624" viewBox="0 0 16515 19624" fill="none" xmlns="http://www.w3.org/2000/svg">
<rect width="16515" height="19624" fill="#1E1E1E"/>
<path d="M16515 0L16447 19624H12V0H16515Z" fill="url(#paint0_linear_30_2)"/>
<path d="M12 4724H5586L12 722V4724Z" fill="#E5EFFF"/>
<path d="M11388.5 7032.83C13291.5 6136.95 16515 5209 16515 5209V13848C16515 13848 13275.2 16468.7 9806 18027.5C6550.51 19490.3 0 18477.5 0 18477.5V11576.5C0 11576.5 2619.25 12166.1 4284.76 11960.4C7791.96 11527.1 8270.23 8500.86 11388.5 7032.83Z" fill="url(#paint1_linear_30_2)"/>
<path d="M3755 14777C3755 15044.8 3675.59 15306.6 3526.81 15529.2C3378.03 15751.9 3166.56 15925.5 2919.15 16027.9C2671.74 16130.4 2399.5 16157.2 2136.85 16105C1874.2 16052.7 1632.94 15923.8 1443.58 15734.4C1254.22 15545.1 1125.26 15303.8 1073.02 15041.2C1020.77 14778.5 1047.59 14506.3 1150.07 14258.8C1252.55 14011.4 1426.09 13800 1648.76 13651.2C1871.42 13502.4 2133.2 13423 2401 13423V14777H3755Z" fill="#EDF4FF"/>
<path d="M15354 9109.5C15394.9 9109.5 15428.4 9076.29 15424.4 9035.61C15413 8918.79 15374.7 8805.07 15311.6 8701.79C15246.3 8595.06 15156.4 8502.42 15048.1 8429.96C15016.5 8408.78 14974.3 8418.32 14952.2 8449.37L14566.9 8992.69C14532.1 9041.69 14567.1 9109.5 14627.2 9109.5H15354Z" fill="#DAE8FF"/>
<rect x="14559" y="9180" width="869" height="1082" rx="165" fill="#DAE8FF"/>
<defs>
<linearGradient id="paint0_linear_30_2" x1="8263.5" y1="0" x2="8263.5" y2="19624" gradientUnits="userSpaceOnUse">
<stop stop-color="#E9F1FF"/>
<stop offset="1" stop-color="white"/>
</linearGradient>
<linearGradient id="paint1_linear_30_2" x1="13318" y1="9353.34" x2="1323.42" y2="21633.1" gradientUnits="userSpaceOnUse">
<stop stop-color="#F3F8FF"/>
<stop offset="1" stop-color="#C6DDFF" stop-opacity="0"/>
</linearGradient>
</defs>
</svg>
