<svg version="1.1" id="Layer_1" xmlns="http://www.w3.org/2000/svg" xmlns:xlink="http://www.w3.org/1999/xlink" x="0px" y="0px"
	 width="100%" viewBox="0 0 870 201" enable-background="new 0 0 870 201" xml:space="preserve">
<path fill="#00000000" opacity="1.00000000" stroke="none" 
	d="
M627.00000000,202.00000000 
	C418.048615,202.00000000 209.597260,202.00000000 1.072944,202.00000000 
	C1.072944,135.064331 1.072944,68.128548 1.072944,1.096384 
	C290.999969,1.096384 581.00000000,1.096384 870.971313,1.096384 
	C870.971313,68.069473 870.971313,135.034744 870.971313,202.00000000 
	C789.795105,202.00000000 708.647583,202.00000000 627.00000000,202.00000000 
M378.970673,99.753555 
	C378.924652,105.917732 378.981506,112.085144 378.787964,118.244682 
	C378.695343,121.192368 377.887390,124.120064 377.825165,127.065704 
	C377.689209,133.502213 377.916687,139.946732 377.759186,146.382187 
	C377.731201,147.525269 376.769592,148.851456 375.880798,149.731033 
	C372.461700,153.114548 369.065399,156.559723 365.330353,159.572510 
	C362.611206,161.765884 361.106964,164.561539 362.724518,167.291458 
	C363.690247,168.921234 366.972565,169.924271 369.221069,169.937637 
	C412.040527,170.192352 454.861145,170.278976 497.681519,170.276642 
	C499.233765,170.276566 501.750671,169.347168 502.121674,168.267776 
	C502.743988,166.457443 502.692139,163.716751 501.680145,162.194351 
	C499.795166,159.358627 497.282043,156.766708 494.555420,154.699936 
	C488.652863,150.225800 485.283813,145.199326 485.815704,137.148102 
	C486.571960,125.700333 486.343048,114.151871 485.876343,102.673210 
	C485.624176,96.471352 487.485260,91.989922 492.761658,88.962013 
	C496.127045,87.030769 497.472870,84.439491 496.229523,80.643105 
	C494.991547,76.862999 491.834106,77.064301 488.830750,77.063698 
	C450.509918,77.055984 412.188873,77.028702 373.868744,77.199409 
	C371.804932,77.208603 369.748718,78.929634 367.688965,79.853790 
	C368.760345,82.240105 369.466095,84.895569 370.981964,86.954666 
	C373.818939,90.808319 379.328857,92.816856 378.970673,99.753555 
M445.518372,71.976395 
	C451.844788,72.111267 458.172394,72.398087 464.497314,72.347122 
	C475.295898,72.260117 486.095123,72.029884 496.887726,71.670082 
	C498.343231,71.621559 499.762085,70.473518 501.197906,69.834602 
	C500.109650,68.536339 499.284546,66.686577 497.893494,66.022865 
	C478.225952,56.638832 458.559113,47.242916 438.676758,38.330261 
	C435.497375,36.905033 430.830658,36.657356 427.609955,37.873619 
	C418.634338,41.263180 410.052917,45.698776 401.324585,49.740295 
	C395.888275,52.257504 390.450897,54.773575 385.044708,57.354572 
	C378.738922,60.365036 372.428680,63.371750 366.213379,66.561348 
	C365.037415,67.164856 364.296295,68.615753 363.354523,69.675652 
	C364.637573,70.564049 365.816467,71.928955 367.226379,72.237106 
	C369.799011,72.799416 372.510742,72.932732 375.160492,72.902267 
	C398.283478,72.636459 421.405518,72.294601 445.518372,71.976395 
M642.160095,127.704765 
	C638.170654,127.474251 634.165833,127.382347 630.199402,126.943634 
	C628.656433,126.772964 626.077332,126.053101 625.896790,125.183495 
	C625.076965,121.233673 624.194336,116.994568 624.941833,113.174042 
	C625.231201,111.695244 629.735657,110.290161 632.382812,110.162926 
	C640.696228,109.763329 649.039856,109.936203 657.371216,109.990997 
	C661.499146,110.018143 662.918274,108.049385 662.731262,104.063232 
	C662.532959,99.836548 660.469971,98.090111 656.427917,98.099075 
	C648.775757,98.116043 641.122864,98.125542 633.471497,98.033203 
	C625.589233,97.938072 624.891846,97.176529 624.948425,89.418640 
	C625.000671,82.256714 626.110779,81.153214 633.472107,81.030045 
	C635.804382,80.991020 638.137878,81.029457 640.470764,81.017700 
	C646.968689,80.984955 653.467712,81.005775 659.963989,80.881058 
	C663.184814,80.819221 664.757385,78.963264 664.822205,75.752724 
	C664.890076,72.393944 663.506348,70.291138 659.966797,70.095772 
	C657.805786,69.976509 655.636841,70.003067 653.471558,69.956841 
	C640.996948,69.690536 628.518677,69.526215 616.050110,69.087334 
	C612.559631,68.964478 612.092957,70.991547 612.088013,73.448212 
	C612.046997,93.776871 612.075806,114.105690 612.101929,134.434433 
	C612.105957,137.570435 613.634094,139.676697 616.836853,139.747238 
	C630.615906,140.050735 644.398254,140.208054 658.179871,140.380157 
	C658.815857,140.388107 659.456299,140.025116 660.094849,139.835495 
	C663.694458,138.766586 665.112732,136.315582 664.808533,132.642471 
	C664.503601,128.960129 661.993835,127.920235 658.941895,127.820740 
	C653.622681,127.647331 648.296021,127.699883 642.160095,127.704765 
M171.544632,140.272339 
	C176.447525,137.589172 181.941345,135.609833 186.138474,132.086044 
	C197.115036,122.870430 199.820923,100.892334 193.679871,87.767960 
	C187.241577,74.008415 175.678329,68.858284 162.214676,67.327599 
	C150.645020,66.012222 134.515396,74.301704 128.847397,87.729889 
	C125.068657,96.682228 123.847099,105.587036 126.145508,114.986626 
	C128.466980,124.480499 133.569641,131.874649 142.126328,136.919571 
	C151.202576,142.270828 160.904327,141.485947 171.544632,140.272339 
M808.777893,106.819061 
	C808.740967,97.681160 808.704895,88.543251 808.666626,79.405350 
	C808.658997,77.579010 808.845581,75.724548 808.595459,73.931473 
	C807.729614,67.724426 802.561035,70.004150 799.054321,69.473709 
	C795.471313,68.931725 795.143005,71.976509 795.159119,74.509094 
	C795.191895,79.658386 795.277588,84.824593 795.728210,89.949821 
	C796.364990,97.192444 794.215576,99.991486 787.092896,99.947975 
	C780.106384,99.905304 773.121643,99.568153 766.136169,99.359512 
	C760.296570,99.185097 759.262451,98.252518 759.081604,92.330894 
	C758.924072,87.172302 759.059692,82.005424 758.966553,76.844002 
	C758.863220,71.120628 757.281799,69.794022 751.765442,69.979813 
	C747.254700,70.131737 746.039062,72.955803 746.168335,76.635559 
	C746.511841,86.415352 747.182007,96.183853 747.509521,105.963966 
	C747.821167,115.268883 747.866272,124.582764 748.023804,133.892776 
	C748.088257,137.702164 750.030884,139.933060 753.811096,139.972839 
	C757.667542,140.013428 758.871338,137.332550 758.912048,133.944244 
	C758.972046,128.948624 759.093994,123.949348 758.969177,118.957138 
	C758.849670,114.174202 760.835388,111.865471 765.765869,111.952560 
	C773.424377,112.087814 781.087952,112.075829 788.747253,111.971039 
	C793.177673,111.910423 795.105957,113.898438 795.074646,118.301422 
	C795.037903,123.458702 795.162292,128.624023 795.433289,133.774460 
	C795.659119,138.064896 797.255371,141.111862 802.417114,140.894043 
	C807.544434,140.677734 808.872986,137.565475 808.880310,133.244675 
	C808.894775,124.751595 808.855591,116.258423 808.777893,106.819061 
M58.996681,101.500000 
	C58.997314,109.161354 58.987343,116.822739 59.003334,124.484062 
	C59.010632,127.980927 58.967850,131.482361 59.128525,134.973389 
	C59.361031,140.025177 63.200966,140.404800 66.965790,140.740051 
	C71.206978,141.117722 71.290726,138.285614 71.329849,135.214218 
	C71.365814,132.390121 71.960358,129.563980 71.886627,126.749779 
	C71.768776,122.251892 73.576859,119.938683 78.208740,119.678734 
	C84.643089,119.317612 91.082207,118.868454 97.484413,118.147430 
	C107.486755,117.020958 115.758171,108.726204 117.001373,98.907593 
	C118.824043,84.512413 114.843330,76.810753 103.546646,72.177094 
	C91.296860,67.152489 78.546410,67.568169 65.768356,68.446068 
	C61.065781,68.769150 58.829956,71.571281 58.957527,76.518204 
	C59.163551,84.507156 59.002613,92.505577 58.996681,101.500000 
M676.726074,90.348999 
	C676.133972,92.257988 675.688477,94.227760 674.926270,96.066223 
	C669.476440,109.211632 679.359558,133.813171 695.323792,138.300461 
	C701.470398,140.028152 707.997986,140.673996 714.401001,141.142258 
	C721.463074,141.658722 727.795044,138.886551 733.160583,134.491287 
	C734.516418,133.380661 735.558533,129.547150 734.793701,128.674301 
	C733.197388,126.852348 730.378357,125.532387 727.911072,125.228424 
	C726.039795,124.997894 723.856262,126.506172 721.947449,127.501190 
	C705.182373,136.240295 687.575256,126.015579 686.919495,107.119934 
	C686.884827,106.120865 686.744629,105.115097 686.816345,104.124245 
	C687.971313,88.175034 696.849304,77.301956 714.059265,80.711449 
	C718.069153,81.505852 721.997314,82.783730 725.897888,84.041290 
	C730.339905,85.473427 732.623535,82.465591 734.195862,79.491753 
	C734.738892,78.464668 732.923950,74.886230 731.474670,74.331413 
	C724.387146,71.618042 716.875427,67.172112 709.855225,67.719452 
	C695.580017,68.832443 682.528809,74.231941 676.726074,90.348999 
M274.408966,82.062469 
	C273.320923,80.189995 272.024628,78.405746 271.186401,76.427422 
	C269.191620,71.719315 265.778290,69.334885 260.683807,69.679527 
	C258.836700,69.804489 257.025299,70.457481 255.197601,70.869537 
	C255.749481,72.698715 255.921387,74.774063 256.919220,76.314346 
	C261.175201,82.883995 265.453186,89.461662 270.138580,95.725655 
	C277.121124,105.060730 282.076172,114.858032 280.050323,127.019615 
	C279.672394,129.288513 279.986053,131.676987 280.023041,134.009598 
	C280.075836,137.338638 280.296692,140.533142 284.857574,140.623840 
	C289.946838,140.725067 292.681915,138.648911 292.792572,133.806915 
	C292.940826,127.319832 292.562225,120.822014 292.622620,114.330788 
	C292.640015,112.462883 292.902435,110.280029 293.884399,108.789673 
	C300.378693,98.933083 307.193359,89.287476 313.682190,79.427414 
	C315.336182,76.914131 318.993164,74.333527 315.887604,70.785263 
	C314.033264,68.666580 305.922424,70.073212 303.852142,72.525650 
	C302.785980,73.788635 301.999634,75.286934 301.077728,76.672829 
	C297.019104,82.774200 293.018250,88.915314 288.869873,94.955086 
	C286.885834,97.843727 284.791443,98.097969 282.733032,94.790283 
	C280.183807,90.693909 277.457306,86.707840 274.408966,82.062469 
M602.137268,75.316551 
	C602.343689,71.366295 600.081665,70.008507 596.544739,70.001213 
	C589.886658,69.987473 583.228333,70.011520 576.570557,69.960197 
	C568.249512,69.896065 559.929077,69.759438 551.608093,69.679344 
	C548.145569,69.646019 545.217407,70.338951 545.088501,74.700821 
	C544.960510,79.034058 547.632446,80.015205 551.243652,79.994408 
	C554.239441,79.977150 557.235962,80.064041 560.231689,80.043678 
	C563.464783,80.021690 565.847595,81.097336 566.098877,84.699631 
	C566.671082,92.902481 567.315125,101.105026 567.639160,109.319160 
	C567.970215,117.710846 567.733643,126.130798 568.287476,134.502518 
	C568.390259,136.056610 570.840027,138.211563 572.603394,138.724106 
	C575.310974,139.511108 577.994019,138.369431 578.601562,135.052902 
	C578.958191,133.106522 578.976501,131.080765 578.981873,129.090256 
	C579.019409,115.107933 578.958130,101.125122 579.048584,87.143242 
	C579.086731,81.246368 580.237122,80.194260 586.123108,80.047005 
	C589.616760,79.959610 593.198242,80.443504 596.576843,79.805588 
	C598.570557,79.429169 600.245361,77.363365 602.137268,75.316551 
M221.034363,117.389984 
	C221.011749,103.563530 220.984055,89.737076 220.969559,75.910614 
	C220.965134,71.694824 218.771683,70.001091 214.682037,70.004333 
	C210.608841,70.007568 209.014923,72.017456 209.020844,75.879257 
	C209.049988,94.869995 209.078049,113.860970 209.001816,132.851456 
	C208.983734,137.359573 211.082748,139.090958 215.425598,139.057999 
	C227.752243,138.964417 240.080063,139.038208 252.407288,139.002213 
	C255.600754,138.992874 258.670959,138.497330 258.646240,134.314148 
	C258.621521,130.129776 255.717850,129.070023 252.208633,129.039429 
	C245.379196,128.979874 238.548981,129.015320 231.719208,128.984406 
	C222.205933,128.941345 221.204025,127.932831 221.034363,117.389984 
z"/>
<path fill="#FFF" opacity="1.00000000" stroke="none" 
	d="
M378.961792,99.297638 
	C379.328857,92.816856 373.818939,90.808319 370.981964,86.954666 
	C369.466095,84.895569 368.760345,82.240105 367.688965,79.853790 
	C369.748718,78.929634 371.804932,77.208603 373.868744,77.199409 
	C412.188873,77.028702 450.509918,77.055984 488.830750,77.063698 
	C491.834106,77.064301 494.991547,76.862999 496.229523,80.643105 
	C497.472870,84.439491 496.127045,87.030769 492.761658,88.962013 
	C487.485260,91.989922 485.624176,96.471352 485.876343,102.673210 
	C486.343048,114.151871 486.571960,125.700333 485.815704,137.148102 
	C485.283813,145.199326 488.652863,150.225800 494.555420,154.699936 
	C497.282043,156.766708 499.795166,159.358627 501.680145,162.194351 
	C502.692139,163.716751 502.743988,166.457443 502.121674,168.267776 
	C501.750671,169.347168 499.233765,170.276566 497.681519,170.276642 
	C454.861145,170.278976 412.040527,170.192352 369.221069,169.937637 
	C366.972565,169.924271 363.690247,168.921234 362.724518,167.291458 
	C361.106964,164.561539 362.611206,161.765884 365.330353,159.572510 
	C369.065399,156.559723 372.461700,153.114548 375.880798,149.731033 
	C376.769592,148.851456 377.731201,147.525269 377.759186,146.382187 
	C377.916687,139.946732 377.689209,133.502213 377.825165,127.065704 
	C377.887390,124.120064 378.695343,121.192368 378.787964,118.244682 
	C378.981506,112.085144 378.924652,105.917732 378.961792,99.297638 
M455.003479,109.504272 
	C455.021271,120.147591 455.325806,130.801193 454.944702,141.430222 
	C454.730713,147.398407 458.853088,150.209305 462.179230,153.738510 
	C462.584290,154.168289 464.161041,154.283524 464.396729,153.961136 
	C466.759583,150.729080 471.494171,149.634476 471.212799,143.939178 
	C470.622772,131.996033 471.030701,120.003456 471.033356,108.031181 
	C471.034210,104.041763 471.249847,100.039757 471.001129,96.066429 
	C470.746643,92.001236 464.104675,87.166428 461.511383,89.150757 
	C458.166779,91.710014 454.434906,94.261856 454.971802,99.532814 
	C455.273499,102.494713 455.011597,105.514023 455.003479,109.504272 
M393.949402,135.489441 
	C393.840210,142.928131 392.366577,150.943619 402.231995,154.373825 
	C404.639709,151.591537 409.214142,148.763992 409.338776,145.752304 
	C410.018494,129.327820 409.606750,112.858025 409.546265,96.403908 
	C409.544525,95.926674 409.424316,95.276344 409.105347,95.001328 
	C406.573822,92.818695 404.272644,89.893776 401.313995,88.832314 
	C398.954529,87.985832 393.836060,95.041191 393.848785,98.067207 
	C393.899872,110.209259 393.919128,122.351463 393.949402,135.489441 
M440.925049,129.229858 
	C440.893921,119.581284 440.703522,109.929573 440.893005,100.285332 
	C441.001984,94.739189 437.111206,92.078712 433.662323,89.048424 
	C433.153107,88.600967 431.536896,88.712425 430.932098,89.193230 
	C427.947784,91.565666 424.951782,93.901161 424.980957,98.405945 
	C425.080170,113.722115 425.078369,129.039734 424.981476,144.355957 
	C424.948792,149.521317 429.602509,151.261948 432.067230,154.584473 
	C432.348724,154.963913 434.716980,154.609604 435.026093,154.021606 
	C436.978302,150.308319 439.226440,146.579315 440.197540,142.569870 
	C441.158051,138.604034 440.726501,134.301041 440.925049,129.229858 
z"/>
<path fill="#FFF" opacity="1.00000000" stroke="none" 
	d="
M445.023132,71.975861 
	C421.405518,72.294601 398.283478,72.636459 375.160492,72.902267 
	C372.510742,72.932732 369.799011,72.799416 367.226379,72.237106 
	C365.816467,71.928955 364.637573,70.564049 363.354523,69.675644 
	C364.296295,68.615753 365.037415,67.164856 366.213379,66.561348 
	C372.428680,63.371750 378.738922,60.365036 385.044708,57.354572 
	C390.450897,54.773575 395.888275,52.257504 401.324585,49.740295 
	C410.052917,45.698776 418.634338,41.263180 427.609955,37.873619 
	C430.830658,36.657356 435.497375,36.905033 438.676758,38.330261 
	C458.559113,47.242916 478.225952,56.638832 497.893494,66.022865 
	C499.284546,66.686577 500.109650,68.536339 501.197906,69.834610 
	C499.762085,70.473518 498.343231,71.621559 496.887726,71.670082 
	C486.095123,72.029884 475.295898,72.260117 464.497314,72.347122 
	C458.172394,72.398087 451.844788,72.111267 445.023132,71.975861 
z"/>
<path fill="#FFF" opacity="1.00000000" stroke="none" 
	d="
M642.566284,127.681236 
	C648.296021,127.699883 653.622681,127.647331 658.941895,127.820740 
	C661.993835,127.920235 664.503601,128.960129 664.808533,132.642471 
	C665.112732,136.315582 663.694458,138.766586 660.094849,139.835495 
	C659.456299,140.025116 658.815857,140.388107 658.179871,140.380157 
	C644.398254,140.208054 630.615906,140.050735 616.836853,139.747238 
	C613.634094,139.676697 612.105957,137.570435 612.101929,134.434433 
	C612.075806,114.105690 612.046997,93.776871 612.088013,73.448212 
	C612.092957,70.991547 612.559631,68.964478 616.050110,69.087334 
	C628.518677,69.526215 640.996948,69.690536 653.471558,69.956841 
	C655.636841,70.003067 657.805786,69.976509 659.966797,70.095772 
	C663.506348,70.291138 664.890076,72.393944 664.822205,75.752724 
	C664.757385,78.963264 663.184814,80.819221 659.963989,80.881058 
	C653.467712,81.005775 646.968689,80.984955 640.470764,81.017700 
	C638.137878,81.029457 635.804382,80.991020 633.472107,81.030045 
	C626.110779,81.153214 625.000671,82.256714 624.948425,89.418640 
	C624.891846,97.176529 625.589233,97.938072 633.471497,98.033203 
	C641.122864,98.125542 648.775757,98.116043 656.427917,98.099075 
	C660.469971,98.090111 662.532959,99.836548 662.731262,104.063232 
	C662.918274,108.049385 661.499146,110.018143 657.371216,109.990997 
	C649.039856,109.936203 640.696228,109.763329 632.382812,110.162926 
	C629.735657,110.290161 625.231201,111.695244 624.941833,113.174042 
	C624.194336,116.994568 625.076965,121.233673 625.896790,125.183495 
	C626.077332,126.053101 628.656433,126.772964 630.199402,126.943634 
	C634.165833,127.382347 638.170654,127.474251 642.566284,127.681236 
z"/>
<path fill="#FFF" opacity="1.00000000" stroke="none" 
	d="
M171.121979,140.360580 
	C160.904327,141.485947 151.202576,142.270828 142.126328,136.919571 
	C133.569641,131.874649 128.466980,124.480499 126.145508,114.986626 
	C123.847099,105.587036 125.068657,96.682228 128.847397,87.729889 
	C134.515396,74.301704 150.645020,66.012222 162.214676,67.327599 
	C175.678329,68.858284 187.241577,74.008415 193.679871,87.767960 
	C199.820923,100.892334 197.115036,122.870430 186.138474,132.086044 
	C181.941345,135.609833 176.447525,137.589172 171.121979,140.360580 
M181.364716,120.699921 
	C185.836563,110.724434 187.269699,100.775360 181.812195,90.577034 
	C174.772095,77.421272 152.285095,74.870804 143.307938,86.436745 
	C135.886688,95.998100 134.956924,106.552986 139.787704,117.443512 
	C141.216415,120.664383 143.417892,124.591248 146.313156,125.932358 
	C159.262711,131.930679 169.851242,134.006500 181.364716,120.699921 
z"/>
<path fill="#FFF" opacity="1.00000000" stroke="none" 
	d="
M808.808228,107.292175 
	C808.855591,116.258423 808.894775,124.751595 808.880310,133.244675 
	C808.872986,137.565475 807.544434,140.677734 802.417114,140.894043 
	C797.255371,141.111862 795.659119,138.064896 795.433289,133.774460 
	C795.162292,128.624023 795.037903,123.458702 795.074646,118.301422 
	C795.105957,113.898438 793.177673,111.910423 788.747253,111.971039 
	C781.087952,112.075829 773.424377,112.087814 765.765869,111.952560 
	C760.835388,111.865471 758.849670,114.174202 758.969177,118.957138 
	C759.093994,123.949348 758.972046,128.948624 758.912048,133.944244 
	C758.871338,137.332550 757.667542,140.013428 753.811096,139.972839 
	C750.030884,139.933060 748.088257,137.702164 748.023804,133.892776 
	C747.866272,124.582764 747.821167,115.268883 747.509521,105.963966 
	C747.182007,96.183853 746.511841,86.415352 746.168335,76.635559 
	C746.039062,72.955803 747.254700,70.131737 751.765442,69.979813 
	C757.281799,69.794022 758.863220,71.120628 758.966553,76.844002 
	C759.059692,82.005424 758.924072,87.172302 759.081604,92.330894 
	C759.262451,98.252518 760.296570,99.185097 766.136169,99.359512 
	C773.121643,99.568153 780.106384,99.905304 787.092896,99.947975 
	C794.215576,99.991486 796.364990,97.192444 795.728210,89.949821 
	C795.277588,84.824593 795.191895,79.658386 795.159119,74.509094 
	C795.143005,71.976509 795.471313,68.931725 799.054321,69.473709 
	C802.561035,70.004150 807.729614,67.724426 808.595459,73.931473 
	C808.845581,75.724548 808.658997,77.579010 808.666626,79.405350 
	C808.704895,88.543251 808.740967,97.681160 808.808228,107.292175 
z"/>
<path fill="#FFF" opacity="1.00000000" stroke="none" 
	d="
M58.996670,101.00000000 
	C59.002613,92.505577 59.163551,84.507156 58.957527,76.518204 
	C58.829956,71.571281 61.065781,68.769150 65.768356,68.446068 
	C78.546410,67.568169 91.296860,67.152489 103.546646,72.177094 
	C114.843330,76.810753 118.824043,84.512413 117.001373,98.907593 
	C115.758171,108.726204 107.486755,117.020958 97.484413,118.147430 
	C91.082207,118.868454 84.643089,119.317612 78.208740,119.678734 
	C73.576859,119.938683 71.768776,122.251892 71.886627,126.749779 
	C71.960358,129.563980 71.365814,132.390121 71.329849,135.214218 
	C71.290726,138.285614 71.206978,141.117722 66.965790,140.740051 
	C63.200966,140.404800 59.361031,140.025177 59.128525,134.973389 
	C58.967850,131.482361 59.010632,127.980927 59.003334,124.484062 
	C58.987343,116.822739 58.997314,109.161354 58.996670,101.00000000 
M103.788628,101.139427 
	C108.851379,90.198631 103.214302,81.616959 91.105995,81.733086 
	C89.471260,81.748772 87.804153,81.416672 86.199478,81.042297 
	C76.633705,78.810616 71.491432,82.574211 71.100006,92.286057 
	C70.966217,95.605659 71.054367,98.940300 71.181831,102.262672 
	C71.318626,105.828415 73.243149,107.819832 76.853539,107.861519 
	C81.841949,107.919121 86.997826,108.619507 91.770622,107.594627 
	C95.872643,106.713783 99.537926,103.799164 103.788628,101.139427 
z"/>
<path fill="#FFF" opacity="1.00000000" stroke="none" 
	d="
M676.869629,89.991493 
	C682.528809,74.231941 695.580017,68.832443 709.855225,67.719452 
	C716.875427,67.172112 724.387146,71.618042 731.474670,74.331413 
	C732.923950,74.886230 734.738892,78.464668 734.195862,79.491753 
	C732.623535,82.465591 730.339905,85.473427 725.897888,84.041290 
	C721.997314,82.783730 718.069153,81.505852 714.059265,80.711449 
	C696.849304,77.301956 687.971313,88.175034 686.816345,104.124245 
	C686.744629,105.115097 686.884827,106.120865 686.919495,107.119934 
	C687.575256,126.015579 705.182373,136.240295 721.947449,127.501190 
	C723.856262,126.506172 726.039795,124.997894 727.911072,125.228424 
	C730.378357,125.532387 733.197388,126.852348 734.793701,128.674301 
	C735.558533,129.547150 734.516418,133.380661 733.160583,134.491287 
	C727.795044,138.886551 721.463074,141.658722 714.401001,141.142258 
	C707.997986,140.673996 701.470398,140.028152 695.323792,138.300461 
	C679.359558,133.813171 669.476440,109.211632 674.926270,96.066223 
	C675.688477,94.227760 676.133972,92.257988 676.869629,89.991493 
z"/>
<path fill="#FFF" opacity="1.00000000" stroke="none" 
	d="
M274.608185,82.368286 
	C277.457306,86.707840 280.183807,90.693909 282.733032,94.790283 
	C284.791443,98.097969 286.885834,97.843727 288.869873,94.955086 
	C293.018250,88.915314 297.019104,82.774200 301.077728,76.672829 
	C301.999634,75.286934 302.785980,73.788635 303.852142,72.525650 
	C305.922424,70.073212 314.033264,68.666580 315.887604,70.785263 
	C318.993164,74.333527 315.336182,76.914131 313.682190,79.427414 
	C307.193359,89.287476 300.378693,98.933083 293.884399,108.789673 
	C292.902435,110.280029 292.640015,112.462883 292.622620,114.330788 
	C292.562225,120.822014 292.940826,127.319832 292.792572,133.806915 
	C292.681915,138.648911 289.946838,140.725067 284.857574,140.623840 
	C280.296692,140.533142 280.075836,137.338638 280.023041,134.009598 
	C279.986053,131.676987 279.672394,129.288513 280.050323,127.019615 
	C282.076172,114.858032 277.121124,105.060730 270.138580,95.725655 
	C265.453186,89.461662 261.175201,82.883995 256.919220,76.314346 
	C255.921387,74.774063 255.749481,72.698715 255.197601,70.869537 
	C257.025299,70.457481 258.836700,69.804489 260.683807,69.679527 
	C265.778290,69.334885 269.191620,71.719315 271.186401,76.427422 
	C272.024628,78.405746 273.320923,80.189995 274.608185,82.368286 
z"/>
<path fill="#FFF" opacity="1.00000000" stroke="none" 
	d="
M602.100403,75.686935 
	C600.245361,77.363365 598.570557,79.429169 596.576843,79.805588 
	C593.198242,80.443504 589.616760,79.959610 586.123108,80.047005 
	C580.237122,80.194260 579.086731,81.246368 579.048584,87.143242 
	C578.958130,101.125122 579.019409,115.107933 578.981873,129.090256 
	C578.976501,131.080765 578.958191,133.106522 578.601562,135.052902 
	C577.994019,138.369431 575.310974,139.511108 572.603394,138.724106 
	C570.840027,138.211563 568.390259,136.056610 568.287476,134.502518 
	C567.733643,126.130798 567.970215,117.710846 567.639160,109.319160 
	C567.315125,101.105026 566.671082,92.902481 566.098877,84.699631 
	C565.847595,81.097336 563.464783,80.021690 560.231689,80.043678 
	C557.235962,80.064041 554.239441,79.977150 551.243652,79.994408 
	C547.632446,80.015205 544.960510,79.034058 545.088501,74.700821 
	C545.217407,70.338951 548.145569,69.646019 551.608093,69.679344 
	C559.929077,69.759438 568.249512,69.896065 576.570557,69.960197 
	C583.228333,70.011520 589.886658,69.987473 596.544739,70.001213 
	C600.081665,70.008507 602.343689,71.366295 602.100403,75.686935 
z"/>
<path fill="#FFF" opacity="1.00000000" stroke="none" 
	d="
M221.035828,117.869736 
	C221.204025,127.932831 222.205933,128.941345 231.719208,128.984406 
	C238.548981,129.015320 245.379196,128.979874 252.208633,129.039429 
	C255.717850,129.070023 258.621521,130.129776 258.646240,134.314148 
	C258.670959,138.497330 255.600754,138.992874 252.407288,139.002213 
	C240.080063,139.038208 227.752243,138.964417 215.425598,139.057999 
	C211.082748,139.090958 208.983734,137.359573 209.001816,132.851456 
	C209.078049,113.860970 209.049988,94.869995 209.020844,75.879257 
	C209.014923,72.017456 210.608841,70.007568 214.682037,70.004333 
	C218.771683,70.001091 220.965134,71.694824 220.969559,75.910614 
	C220.984055,89.737076 221.011749,103.563530 221.035828,117.869736 
z"/>
<path fill="#00000000" opacity="1.00000000" stroke="none" 
	d="
M455.003540,109.005875 
	C455.011597,105.514023 455.273499,102.494713 454.971802,99.532814 
	C454.434906,94.261856 458.166779,91.710014 461.511383,89.150757 
	C464.104675,87.166428 470.746643,92.001236 471.001129,96.066429 
	C471.249847,100.039757 471.034210,104.041763 471.033356,108.031181 
	C471.030701,120.003456 470.622772,131.996033 471.212799,143.939178 
	C471.494171,149.634476 466.759583,150.729080 464.396729,153.961136 
	C464.161041,154.283524 462.584290,154.168289 462.179230,153.738510 
	C458.853088,150.209305 454.730713,147.398407 454.944702,141.430222 
	C455.325806,130.801193 455.021271,120.147591 455.003540,109.005875 
z"/>
<path fill="#00000000" opacity="1.00000000" stroke="none" 
	d="
M393.949768,134.991516 
	C393.919128,122.351463 393.899872,110.209259 393.848785,98.067207 
	C393.836060,95.041191 398.954529,87.985832 401.313995,88.832314 
	C404.272644,89.893776 406.573822,92.818695 409.105347,95.001328 
	C409.424316,95.276344 409.544525,95.926674 409.546265,96.403908 
	C409.606750,112.858025 410.018494,129.327820 409.338776,145.752304 
	C409.214142,148.763992 404.639709,151.591537 402.231995,154.373825 
	C392.366577,150.943619 393.840210,142.928131 393.949768,134.991516 
z"/>
<path fill="#00000000" opacity="1.00000000" stroke="none" 
	d="
M440.915344,129.687897 
	C440.726501,134.301041 441.158051,138.604034 440.197540,142.569870 
	C439.226440,146.579315 436.978302,150.308319 435.026093,154.021606 
	C434.716980,154.609604 432.348724,154.963913 432.067230,154.584473 
	C429.602509,151.261948 424.948792,149.521317 424.981476,144.355957 
	C425.078369,129.039734 425.080170,113.722115 424.980957,98.405945 
	C424.951782,93.901161 427.947784,91.565666 430.932098,89.193230 
	C431.536896,88.712425 433.153107,88.600967 433.662323,89.048424 
	C437.111206,92.078712 441.001984,94.739189 440.893005,100.285332 
	C440.703522,109.929573 440.893921,119.581284 440.915344,129.687897 
z"/>
<path fill="#00000000" opacity="1.00000000" stroke="none" 
	d="
M181.145889,120.999084 
	C169.851242,134.006500 159.262711,131.930679 146.313156,125.932358 
	C143.417892,124.591248 141.216415,120.664383 139.787704,117.443512 
	C134.956924,106.552986 135.886688,95.998100 143.307938,86.436745 
	C152.285095,74.870804 174.772095,77.421272 181.812195,90.577034 
	C187.269699,100.775360 185.836563,110.724434 181.145889,120.999084 
z"/>
<path fill="#00000000" opacity="1.00000000" stroke="none" 
	d="
M103.592484,101.461639 
	C99.537926,103.799164 95.872643,106.713783 91.770622,107.594627 
	C86.997826,108.619507 81.841949,107.919121 76.853539,107.861519 
	C73.243149,107.819832 71.318626,105.828415 71.181831,102.262672 
	C71.054367,98.940300 70.966217,95.605659 71.100006,92.286057 
	C71.491432,82.574211 76.633705,78.810616 86.199478,81.042297 
	C87.804153,81.416672 89.471260,81.748772 91.105995,81.733086 
	C103.214302,81.616959 108.851379,90.198631 103.592484,101.461639 
z"/>
</svg>