<svg version="1.1" id="Layer_1" xmlns="http://www.w3.org/2000/svg" xmlns:xlink="http://www.w3.org/1999/xlink" x="0px" y="0px"
	 width="100%" viewBox="0 0 187 201" enable-background="new 0 0 187 201" xml:space="preserve">
<path fill="#00000000" opacity="1.000000" stroke="none" 
	d="
M123.000000,202.000000 
	C82.026108,202.000000 41.552219,202.000000 1.039165,202.000000 
	C1.039165,135.069321 1.039165,68.138618 1.039165,1.103955 
	C63.223694,1.103955 125.447617,1.103955 187.835770,1.103955 
	C187.835770,67.999664 187.835770,134.999802 187.835770,202.000000 
	C166.472244,202.000000 144.986130,202.000000 123.000000,202.000000 
M145.994141,133.496094 
	C145.995712,123.667984 146.551529,113.797882 145.811142,104.025986 
	C145.285400,97.087021 148.713760,92.529541 153.008896,88.563889 
	C155.782990,86.002602 157.673981,83.735764 156.579224,80.125481 
	C155.306717,75.929031 151.489426,77.087578 148.516006,77.077438 
	C123.862862,76.993340 99.209343,77.013496 74.555931,77.011696 
	C60.396969,77.010666 46.237396,76.954781 32.079350,77.073280 
	C26.709503,77.118217 24.096638,81.424782 26.914923,85.811584 
	C28.736012,88.646210 31.563313,90.817200 33.777718,93.423225 
	C34.981174,94.839508 36.718136,96.537613 36.728882,98.118706 
	C36.838642,114.268845 36.666721,130.421341 36.477184,146.572037 
	C36.465057,147.605347 35.920353,148.914383 35.172287,149.609970 
	C31.210043,153.294250 27.003996,156.720154 23.111889,160.473541 
	C22.047209,161.500259 21.342386,163.313019 21.219358,164.825806 
	C20.852135,169.341324 22.957666,170.951340 29.270338,170.964050 
	C55.089729,171.016068 80.909264,170.999268 106.728752,170.997086 
	C122.720070,170.995743 138.712341,171.053070 154.701462,170.859863 
	C156.600693,170.836914 159.630356,169.818527 160.106918,168.518036 
	C160.842255,166.511246 160.521820,163.431473 159.383881,161.587784 
	C157.744080,158.931000 154.542191,157.263702 152.776489,154.653564 
	C149.840805,150.313904 144.078842,147.265121 145.903610,140.469604 
	C146.404587,138.603973 145.988297,136.492020 145.994141,133.496094 
M119.500000,72.993881 
	C131.321457,72.989059 143.145538,73.110878 154.961945,72.864258 
	C157.124207,72.819122 159.255157,71.274551 161.400558,70.422119 
	C159.795303,68.576332 158.546890,66.002068 156.523087,65.010757 
	C147.717453,60.697506 138.674622,56.870369 129.739609,52.818882 
	C118.554970,47.747334 107.472328,42.437202 96.159592,37.671780 
	C93.480446,36.543205 89.655800,36.153088 87.052376,37.181274 
	C77.639595,40.898701 68.497200,45.310143 59.300713,49.563339 
	C48.587177,54.518139 37.861679,59.456169 27.289257,64.699654 
	C25.055027,65.807747 21.878763,68.220863 21.894640,70.008186 
	C21.929960,73.984390 25.988140,72.643242 28.592632,73.005470 
	C29.246023,73.096352 29.922731,73.019981 30.588724,73.019791 
	C59.892483,73.011192 89.196243,73.002510 119.500000,72.993881 
z"/>
<path fill="#fff" opacity="1.000000" stroke="none" 
	d="
M145.993530,133.994598 
	C145.988297,136.492020 146.404587,138.603973 145.903610,140.469604 
	C144.078842,147.265121 149.840805,150.313904 152.776489,154.653564 
	C154.542191,157.263702 157.744080,158.931000 159.383881,161.587784 
	C160.521820,163.431473 160.842255,166.511246 160.106918,168.518036 
	C159.630356,169.818527 156.600693,170.836914 154.701462,170.859863 
	C138.712341,171.053070 122.720070,170.995743 106.728752,170.997086 
	C80.909264,170.999268 55.089729,171.016068 29.270338,170.964050 
	C22.957666,170.951340 20.852135,169.341324 21.219358,164.825806 
	C21.342386,163.313019 22.047209,161.500259 23.111889,160.473541 
	C27.003996,156.720154 31.210043,153.294250 35.172287,149.609970 
	C35.920353,148.914383 36.465057,147.605347 36.477184,146.572037 
	C36.666721,130.421341 36.838642,114.268845 36.728882,98.118706 
	C36.718136,96.537613 34.981174,94.839508 33.777718,93.423225 
	C31.563313,90.817200 28.736012,88.646210 26.914923,85.811584 
	C24.096638,81.424782 26.709503,77.118217 32.079350,77.073280 
	C46.237396,76.954781 60.396969,77.010666 74.555931,77.011696 
	C99.209343,77.013496 123.862862,76.993340 148.516006,77.077438 
	C151.489426,77.087578 155.306717,75.929031 156.579224,80.125481 
	C157.673981,83.735764 155.782990,86.002602 153.008896,88.563889 
	C148.713760,92.529541 145.285400,97.087021 145.811142,104.025986 
	C146.551529,113.797882 145.995712,123.667984 145.993530,133.994598 
M118.292824,93.220390 
	C117.122589,95.356361 114.974281,97.476715 114.939896,99.630814 
	C114.706406,114.262024 115.169098,128.905731 114.854195,143.533508 
	C114.740570,148.811417 119.273544,150.597321 121.126663,154.299545 
	C121.280052,154.605988 123.085045,154.631439 123.333244,154.259995 
	C125.700569,150.716873 130.294434,148.912933 130.130096,143.345993 
	C129.732712,129.882782 130.023758,116.399841 129.990494,102.924973 
	C129.980103,98.715752 130.143784,95.400475 125.993683,91.531769 
	C121.180084,87.044548 120.723511,89.855911 118.292824,93.220390 
M83.997581,103.596718 
	C84.001144,116.755928 84.276566,129.923294 83.882133,143.070557 
	C83.710541,148.789566 88.140305,150.893921 90.861908,154.393539 
	C91.109711,154.712173 92.486443,154.718140 92.669678,154.435471 
	C94.834877,151.095322 98.508278,147.743988 98.660645,144.259003 
	C99.322075,129.130157 99.283684,113.942741 98.689018,98.808472 
	C98.556198,95.428108 95.235199,92.118965 93.139503,88.936760 
	C92.871185,88.529327 90.629791,88.683868 90.154137,89.269638 
	C86.984596,93.173012 82.628830,96.623276 83.997581,103.596718 
M62.559216,90.819130 
	C61.350536,90.337402 59.239231,89.223770 59.068020,89.468338 
	C56.319141,93.394920 52.532333,96.463486 52.800167,102.352608 
	C53.381924,115.144318 53.378529,127.998550 52.811123,140.791595 
	C52.523495,147.276703 55.800358,150.719727 59.434544,153.633591 
	C68.515205,151.256592 68.223305,144.670532 68.064011,137.824387 
	C67.812378,127.009659 67.851326,116.182152 68.053566,105.365402 
	C68.155777,99.898849 68.122581,94.726105 62.559216,90.819130 
z"/>
<path fill="#fff" opacity="1.000000" stroke="none" 
	d="
M119.000000,72.993866 
	C89.196243,73.002510 59.892483,73.011192 30.588724,73.019791 
	C29.922731,73.019981 29.246023,73.096352 28.592632,73.005470 
	C25.988140,72.643242 21.929960,73.984390 21.894640,70.008186 
	C21.878763,68.220863 25.055027,65.807747 27.289257,64.699654 
	C37.861679,59.456169 48.587177,54.518139 59.300713,49.563339 
	C68.497200,45.310143 77.639595,40.898701 87.052376,37.181274 
	C89.655800,36.153088 93.480446,36.543205 96.159592,37.671780 
	C107.472328,42.437202 118.554970,47.747334 129.739609,52.818882 
	C138.674622,56.870369 147.717453,60.697506 156.523087,65.010757 
	C158.546890,66.002068 159.795303,68.576332 161.400558,70.422119 
	C159.255157,71.274551 157.124207,72.819122 154.961945,72.864258 
	C143.145538,73.110878 131.321457,72.989059 119.000000,72.993866 
z"/>
<path fill="#00000000" opacity="1.000000" stroke="none" 
	d="
M118.542404,93.017548 
	C120.723511,89.855911 121.180084,87.044548 125.993683,91.531769 
	C130.143784,95.400475 129.980103,98.715752 129.990494,102.924973 
	C130.023758,116.399841 129.732712,129.882782 130.130096,143.345993 
	C130.294434,148.912933 125.700569,150.716873 123.333244,154.259995 
	C123.085045,154.631439 121.280052,154.605988 121.126663,154.299545 
	C119.273544,150.597321 114.740570,148.811417 114.854195,143.533508 
	C115.169098,128.905731 114.706406,114.262024 114.939896,99.630814 
	C114.974281,97.476715 117.122589,95.356361 118.542404,93.017548 
z"/>
<path fill="#00000000" opacity="1.000000" stroke="none" 
	d="
M83.998230,103.116241 
	C82.628830,96.623276 86.984596,93.173012 90.154137,89.269638 
	C90.629791,88.683868 92.871185,88.529327 93.139503,88.936760 
	C95.235199,92.118965 98.556198,95.428108 98.689018,98.808472 
	C99.283684,113.942741 99.322075,129.130157 98.660645,144.259003 
	C98.508278,147.743988 94.834877,151.095322 92.669678,154.435471 
	C92.486443,154.718140 91.109711,154.712173 90.861908,154.393539 
	C88.140305,150.893921 83.710541,148.789566 83.882133,143.070557 
	C84.276566,129.923294 84.001144,116.755928 83.998230,103.116241 
z"/>
<path fill="#00000000" opacity="1.000000" stroke="none" 
	d="
M62.693573,91.103409 
	C68.122581,94.726105 68.155777,99.898849 68.053566,105.365402 
	C67.851326,116.182152 67.812378,127.009659 68.064011,137.824387 
	C68.223305,144.670532 68.515205,151.256592 59.434544,153.633591 
	C55.800358,150.719727 52.523495,147.276703 52.811123,140.791595 
	C53.378529,127.998550 53.381924,115.144318 52.800167,102.352608 
	C52.532333,96.463486 56.319141,93.394920 59.068020,89.468338 
	C59.239231,89.223770 61.350536,90.337402 62.693573,91.103409 
z"/>
</svg>