<svg width="5229" height="1073" viewBox="0 0 5229 1073" fill="none" xmlns="http://www.w3.org/2000/svg">
<path d="M355 1.5C216 -6.86435 0.00010204 35 0.00010204 35L0.000541684 1072.5H5229L5229 120.5C5229 120.5 4918.66 42.2911 4715.5 35C4456.35 25.6997 4316.29 124.243 4057 120.5C3823.63 117.131 3698.9 34.8033 3465.5 35C3233.46 35.1955 3109.54 120.927 2877.5 120.5C2648.36 120.079 2526.11 31.202 2297 35C2091.04 38.4142 1982.42 125.935 1776.5 120.5C1599.02 115.816 1507.46 40.1141 1330 35C1121.01 28.9774 1010.12 134.232 801.5 120.5C621.434 108.647 535.13 12.3393 355 1.5Z" fill="url(#paint0_linear_9_12)"/>
<defs>
<linearGradient id="paint0_linear_9_12" x1="3188.5" y1="1545" x2="2614" y2="282" gradientUnits="userSpaceOnUse">
<stop stop-color="#495BCA"/>
<stop stop-color="#495CCA"/>
<stop offset="1" stop-color="#78BFFE"/>
</linearGradient>
</defs>
</svg>
