<svg width="5674" height="1765" viewBox="0 0 5674 1765" fill="none" xmlns="http://www.w3.org/2000/svg">
<path d="M891.5 29.5C485.974 135.577 0.5 628 0.5 628V1451C0.5 1451 397.543 1545.36 653.5 1526C1158.11 1487.82 1310.75 936.996 1816.5 954.5C2289.26 970.862 2437.28 1371.87 2884.5 1526L2885.04 1526.19C3414.94 1708.82 3753.57 1825.52 4306 1730C4910.96 1625.39 5673.5 954.5 5673.5 954.5C5673.5 954.5 5057.09 329.121 4544 172C3778.22 -62.5011 3322.14 592.21 2524 526C1859.92 470.911 1536.17 -139.133 891.5 29.5Z" fill="url(#paint0_linear_9_25)"/>
<defs>
<linearGradient id="paint0_linear_9_25" x1="2633" y1="383" x2="3646.5" y2="2505.5" gradientUnits="userSpaceOnUse">
<stop stop-color="white"/>
<stop offset="1" stop-color="#DEE1F1"/>
</linearGradient>
</defs>
</svg>
